<svg width="140" height="140" viewBox="0 0 140 140" fill="none" xmlns="http://www.w3.org/2000/svg">
<rect width="140" height="140" rx="40" fill="#1565FF"/>
<path d="M64.5284 116H31.5284V22.9091H64.8011C74.1648 22.9091 82.2254 24.7727 88.983 28.5C95.7405 32.197 100.938 37.5151 104.574 44.4545C108.241 51.3939 110.074 59.697 110.074 69.3636C110.074 79.0606 108.241 87.3939 104.574 94.3636C100.938 101.333 95.7102 106.682 88.892 110.409C82.1042 114.136 73.983 116 64.5284 116ZM51.2102 99.1364H63.7102C69.5284 99.1364 74.4223 98.1061 78.392 96.0455C82.392 93.9545 85.392 90.7273 87.392 86.3636C89.4223 81.9697 90.4375 76.303 90.4375 69.3636C90.4375 62.4848 89.4223 56.8636 87.392 52.5C85.392 48.1364 82.4072 44.9242 78.4375 42.8636C74.4678 40.803 69.5739 39.7727 63.7557 39.7727H51.2102V99.1364Z" fill="white"/>
</svg>
